<svg width="32" height="32" viewBox="0 0 32 32" fill="none" xmlns="http://www.w3.org/2000/svg">
<path d="M11.42 8.29C11.3253 8.06764 11.1682 7.8775 10.9676 7.74261C10.7671 7.60772 10.5317 7.53387 10.29 7.53H6.29003C6.18496 7.52404 6.08002 7.54367 5.98422 7.58722C5.88842 7.63076 5.80462 7.69692 5.74003 7.78C5.68657 7.87457 5.65848 7.98136 5.65848 8.09C5.65848 8.19864 5.68657 8.30543 5.74003 8.4L8.47003 13.13L4.17003 20.72C4.11358 20.8135 4.08374 20.9207 4.08374 21.03C4.08374 21.1393 4.11358 21.2465 4.17003 21.34C4.22368 21.429 4.30025 21.5019 4.39172 21.5511C4.48319 21.6004 4.58622 21.6242 4.69003 21.62H8.69003C8.92975 21.6125 9.16194 21.5345 9.35759 21.3958C9.55323 21.2571 9.70365 21.0637 9.79003 20.84L14.15 13.13L11.42 8.29ZM27.83 2.88C27.8817 2.78483 27.9087 2.67827 27.9087 2.57C27.9087 2.46173 27.8817 2.35517 27.83 2.26C27.7709 2.17535 27.6913 2.10709 27.5986 2.06162C27.5059 2.01614 27.4032 1.99494 27.3 2H23.22C22.9839 2.00667 22.7551 2.08345 22.5628 2.22058C22.3705 2.3577 22.2233 2.54896 22.14 2.77C22.14 2.77 13.44 18.2 13.14 18.7L18.88 29.23C18.9736 29.452 19.1288 29.6425 19.3273 29.779C19.5258 29.9154 19.7593 29.9921 20 30H24C24.1051 30.0088 24.2105 29.9894 24.3055 29.9437C24.4005 29.8979 24.4814 29.8276 24.54 29.74C24.5944 29.6457 24.6231 29.5388 24.6231 29.43C24.6231 29.3212 24.5944 29.2143 24.54 29.12L18.85 18.72L27.83 2.88Z" fill="white"/>
</svg>
